<svg width="32" height="32" viewBox="0 0 32 32" fill="none" xmlns="http://www.w3.org/2000/svg">
<path d="M14.666 6.66699L7.99935 12.0003H2.66602V20.0003H7.99935L14.666 25.3337V6.66699Z" stroke="white" stroke-width="2" stroke-linecap="round" stroke-linejoin="round"/>
<path d="M25.4274 6.57324L26.2266 5.97219C25.898 5.53523 25.2793 5.44319 24.8377 5.76556C24.3962 6.08793 24.2953 6.70519 24.6114 7.15132L25.4274 6.57324ZM25.4274 25.4266L24.6114 24.8485C24.2953 25.2946 24.3962 25.9119 24.8377 26.2343C25.2793 26.5566 25.898 26.4646 26.2266 26.0276L25.4274 25.4266ZM21.4279 10.5729C21.0375 10.1823 20.4043 10.1822 20.0137 10.5727C19.6231 10.9632 19.623 11.5963 20.0135 11.9869L21.4279 10.5729ZM20.0135 19.9996C19.623 20.3902 19.6231 21.0233 20.0137 21.4138C20.4043 21.8043 21.0375 21.8042 21.4279 21.4136L20.0135 19.9996ZM24.6114 7.15132C26.686 10.0797 28.3312 12.8118 28.3312 15.9999H30.3312C30.3312 12.1169 28.3155 8.92011 26.2434 5.99517L24.6114 7.15132ZM28.3312 15.9999C28.3312 19.188 26.686 21.9201 24.6114 24.8485L26.2434 26.0046C28.3155 23.0797 30.3312 19.8829 30.3312 15.9999H28.3312ZM20.0135 11.9869C21.0758 13.0496 21.6726 14.4906 21.6726 15.9932H23.6726C23.6726 13.9603 22.8652 12.0106 21.4279 10.5729L20.0135 11.9869ZM21.6726 15.9932C21.6726 17.4958 21.0758 18.9369 20.0135 19.9996L21.4279 21.4136C22.8652 19.9759 23.6726 18.0262 23.6726 15.9932H21.6726ZM25.4274 25.4266C26.2266 26.0276 26.2267 26.0275 26.2268 26.0273C26.2269 26.0272 26.2271 26.027 26.2272 26.0268C26.2274 26.0265 26.2278 26.026 26.2282 26.0255C26.2289 26.0245 26.23 26.0231 26.2312 26.0214C26.2337 26.0181 26.2372 26.0134 26.2417 26.0074C26.2505 25.9955 26.2632 25.9784 26.2793 25.9564C26.3115 25.9125 26.3578 25.8489 26.4161 25.7672C26.5327 25.604 26.6977 25.3684 26.8948 25.0739C27.2885 24.4858 27.814 23.6579 28.3407 22.6983C29.3688 20.8251 30.5007 18.2764 30.5007 15.9999H28.5007C28.5007 17.7337 27.596 19.8984 26.5874 21.736C26.0958 22.6317 25.6029 23.4085 25.2328 23.9613C25.0481 24.2372 24.8948 24.4561 24.7887 24.6048C24.7356 24.6791 24.6944 24.7357 24.6669 24.7731C24.6532 24.7918 24.643 24.8056 24.6364 24.8144C24.6332 24.8188 24.6308 24.822 24.6294 24.8238C24.6287 24.8248 24.6283 24.8254 24.6281 24.8257C24.628 24.8258 24.6279 24.8259 24.6279 24.8258C24.6279 24.8258 24.628 24.8257 24.628 24.8257C24.6281 24.8256 24.6282 24.8255 25.4274 25.4266ZM30.5007 15.9999C30.5007 13.7234 29.3688 11.1748 28.3407 9.30155C27.814 8.34192 27.2885 7.51399 26.8948 6.92591C26.6977 6.63139 26.5327 6.3958 26.4161 6.23257C26.3578 6.15093 26.3115 6.0873 26.2793 6.04337C26.2632 6.0214 26.2505 6.00434 26.2417 5.99241C26.2372 5.98645 26.2337 5.98176 26.2312 5.97838C26.23 5.97669 26.2289 5.97533 26.2282 5.9743C26.2278 5.97378 26.2274 5.97335 26.2272 5.973C26.2271 5.97282 26.2269 5.97262 26.2268 5.97253C26.2267 5.97235 26.2266 5.97219 25.4274 6.57324C24.6282 7.17429 24.6281 7.17417 24.628 7.17408C24.628 7.17407 24.6279 7.17399 24.6279 7.17398C24.6279 7.17396 24.628 7.17402 24.6281 7.17416C24.6283 7.17445 24.6287 7.17505 24.6294 7.17598C24.6308 7.17784 24.6332 7.18099 24.6364 7.18539C24.643 7.1942 24.6532 7.20805 24.6669 7.22673C24.6944 7.26409 24.7356 7.32075 24.7887 7.39504C24.8948 7.54368 25.0481 7.76258 25.2328 8.0385C25.6029 8.5913 26.0958 9.3681 26.5874 10.2639C27.596 12.1014 28.5007 14.2661 28.5007 15.9999H30.5007Z" fill="white"/>
</svg>
